<svg width="1200" height="120" viewBox="0 0 1200 120" fill="none" xmlns="http://www.w3.org/2000/svg" role="img" aria-label="footer">
  <defs>
    <linearGradient id="gf" x1="0" y1="0" x2="1" y2="0.4">
      <stop offset="0%"  stop-color="#FB7E2E"/>
      <stop offset="48%" stop-color="#FF895F"/>
      <stop offset="100%" stop-color="#FF6FA5"/>
    </linearGradient>
    <linearGradient id="gf2" x1="0" y1="0" x2="1" y2="0">
      <stop offset="0%"  stop-color="#FCA85C"/>
      <stop offset="100%" stop-color="#FF93BC"/>
    </linearGradient>
  </defs>
  <g>
    <animateTransform attributeName="transform" type="translate"
      values="0 0; 0 5; 0 0" dur="6s" repeatCount="indefinite"
      calcMode="spline" keyTimes="0;0.5;1" keySplines="0.4 0 0.6 1;0.4 0 0.6 1"/>

    <g opacity="0.45">
      <path fill="url(#gf2)" d="M-80,120 L1280,120 L1280,-30 C1140,6 1020,-60 880,-27 C740,6 640,-59 500,-27 C360,5 260,-59 120,-27 C60,-12 0,-30 -80,-22 Z">
        <animateTransform attributeName="transform" type="translate"
          values="0 0; 70 0; 0 0" dur="8s" repeatCount="indefinite"
          calcMode="spline" keyTimes="0;0.5;1" keySplines="0.45 0 0.55 1;0.45 0 0.55 1"/>
      </path>
    </g>

    <path fill="url(#gf)" d="M0,120 L1200,120 L1200,-32 C1100,0 1000,-60 900,-30 C800,0 700,-60 600,-30 C500,0 400,-60 300,-30 C200,0 100,-60 0,-30 Z"/>
  </g>
</svg>
